<?xml version="1.0" encoding="UTF-8" standalone="no"?>
<svg xmlns:dc="http://purl.org/dc/elements/1.1/" xmlns:cc="http://creativecommons.org/ns#" xmlns:rdf="http://www.w3.org/1999/02/22-rdf-syntax-ns#" xmlns:svg="http://www.w3.org/2000/svg" xmlns="http://www.w3.org/2000/svg" xmlns:xlink="http://www.w3.org/1999/xlink" xmlns:sodipodi="http://sodipodi.sourceforge.net/DTD/sodipodi-0.dtd" xmlns:inkscape="http://www.inkscape.org/namespaces/inkscape" width="48" height="48" viewBox="0 0 48 48" version="1.1" xml:space="preserve" style="clip-rule:evenodd;fill-rule:evenodd;stroke-linejoin:round;stroke-miterlimit:1.41420996" id="svg16" sodipodi:docname="b-bird-cutout-narrow-run-square-2.svg" inkscape:version="0.92.4 5da689c313, 2019-01-14"><metadata id="metadata20"><rdf:RDF><cc:Work rdf:about=""><dc:format>image/svg+xml</dc:format><dc:type rdf:resource="http://purl.org/dc/dcmitype/StillImage"/><dc:title/></cc:Work></rdf:RDF></metadata><sodipodi:namedview pagecolor="#ffffff" bordercolor="#666666" borderopacity="1" objecttolerance="10" gridtolerance="10" guidetolerance="10" inkscape:pageopacity="0" inkscape:pageshadow="2" inkscape:window-width="1366" inkscape:window-height="692" id="namedview18" showgrid="false" inkscape:zoom="4" inkscape:cx="39.606512" inkscape:cy="19.797022" inkscape:window-x="0" inkscape:window-y="0" inkscape:window-maximized="1" inkscape:current-layer="g3726" fit-margin-top="0" fit-margin-left="0" fit-margin-right="0" fit-margin-bottom="0"/>
    
    <defs id="defs14">
        <linearGradient id="_Linear1" x1="0" y1="0" x2="1" y2="0" gradientUnits="userSpaceOnUse" gradientTransform="matrix(0,-47.999904,48.087404,0,19.930252,47.999852)"><stop offset="0" style="stop-color:rgb(153,153,153);stop-opacity:1" id="stop9"/><stop offset="1" style="stop-color:rgb(229,229,229);stop-opacity:1" id="stop11"/></linearGradient>
    
        
    
            
        
                
            <linearGradient id="_Linear1-3" x1="0" y1="0" x2="1" y2="0" gradientUnits="userSpaceOnUse" gradientTransform="matrix(0,-47.999904,48.087404,0,19.930252,47.999852)"><stop offset="0" style="stop-color:rgb(153,153,153);stop-opacity:1" id="stop9-6"/><stop offset="1" style="stop-color:rgb(229,229,229);stop-opacity:1" id="stop11-7"/></linearGradient><linearGradient id="_Linear1-3-3" x1="0" y1="0" x2="1" y2="0" gradientUnits="userSpaceOnUse" gradientTransform="matrix(0,-47.999904,48.087404,0,19.930252,47.999852)"><stop offset="0" style="stop-color:rgb(153,153,153);stop-opacity:1" id="stop9-6-5"/><stop offset="1" style="stop-color:rgb(229,229,229);stop-opacity:1" id="stop11-7-6"/></linearGradient><linearGradient inkscape:collect="always" xlink:href="#_Linear1-3-3" id="linearGradient66" gradientUnits="userSpaceOnUse" gradientTransform="matrix(0,-47.999904,48.087404,0,99.930252,47.999852)" x1="0" y1="0" x2="1" y2="0"/><linearGradient inkscape:collect="always" xlink:href="#_Linear1-3-3" id="linearGradient122" gradientUnits="userSpaceOnUse" gradientTransform="matrix(0,-47.999904,48.087404,0,26.930252,47.999852)" x1="0" y1="0" x2="1" y2="0"/><linearGradient inkscape:collect="always" xlink:href="#_Linear1-3-3" id="linearGradient3747" gradientUnits="userSpaceOnUse" gradientTransform="matrix(0,-41.142778,41.217763,0,26.511631,45.999864)" x1="0" y1="0" x2="1" y2="0"/></defs>
<g id="g3726"><rect style="stroke-width:1.17873514;fill:none" y="0" x="0" height="48" width="48" id="rect3722"/><path sodipodi:nodetypes="ssssccsccccccccccscsssccccccccccc" inkscape:connector-curvature="0" id="cutout-run-5-2" d="M 7.235492,4.857142 C 6.554062,4.857142 6,5.4086765 6,6.0909579 V 44.679124 C 6,45.405982 6.593936,46 7.324218,46 H 22.7193 l -0.56751,-3.234398 c -3.281152,-1.296815 -5.604923,-4.49935 -5.604923,-8.239941 0,-2.259435 0.783288,-4.281753 2.112713,-5.80747 -0.361708,-0.573418 -0.761721,-1.420162 -0.868841,-2.46932 -0.0418,-0.413999 -0.09265,-0.855584 -0.314747,-1.207023 -0.617978,-0.976278 -2.573561,-1.784754 -2.83928,-1.920194 -0.06278,-0.0628 -0.0874,-0.190588 -0.04163,-0.202548 0.203349,-0.0214 0.446082,-0.04203 0.736615,-0.0535 0.871597,-0.03411 2.168989,0.018 4.089831,0.40179 0.0564,0.0112 0.299506,-0.188498 0.413517,-0.180797 1.62513,0.103704 3.970171,1.445354 4.968747,3.385056 1.941708,3.771314 2.690128,15.426664 6.606025,19.506674 C 37.29217,45.7489 42,40.92372 42,34.994416 c 0,-4.882269 -3.19698,-9.031707 -7.61382,-10.464844 3.61624,-1.594256 6.14396,-5.203567 6.14396,-9.400112 0,-5.670841 -4.61051,-10.2723179 -10.28905,-10.2723179 z M 23.688619,43.21428 V 46 h 1.60214 l -0.462082,-2.636732 c -0.387439,-0.0248 -0.768039,-0.07523 -1.140058,-0.148988 z m 3.269531,0.05545 c -0.22884,0.035 -0.460652,0.06155 -0.698111,0.08055 V 46 h 1.484921 c -0.31884,-0.647998 -0.6171,-1.533889 -0.78681,-2.730447 z" style="clip-rule:evenodd;fill:url(#linearGradient3747);fill-rule:evenodd;stroke-width:0.85713995;stroke-linejoin:round;stroke-miterlimit:1.41420996"/></g></svg>