<?xml version="1.0" encoding="UTF-8" standalone="no"?>
<svg
   xmlns:dc="http://purl.org/dc/elements/1.1/"
   xmlns:cc="http://creativecommons.org/ns#"
   xmlns:rdf="http://www.w3.org/1999/02/22-rdf-syntax-ns#"
   xmlns:svg="http://www.w3.org/2000/svg"
   xmlns="http://www.w3.org/2000/svg"
   xmlns:sodipodi="http://sodipodi.sourceforge.net/DTD/sodipodi-0.dtd"
   xmlns:inkscape="http://www.inkscape.org/namespaces/inkscape"
   width="100%"
   height="100%"
   viewBox="0 0 48 48"
   version="1.1"
   xml:space="preserve"
   style="fill-rule:evenodd;clip-rule:evenodd;stroke-linejoin:round;stroke-miterlimit:1.41421;"
   id="svg13"
   sodipodi:docname="blackbird-cutout-run.svg"
   inkscape:version="0.92.4 (5da689c313, 2019-01-14)"><metadata
   id="metadata17"><rdf:RDF><cc:Work
       rdf:about=""><dc:format>image/svg+xml</dc:format><dc:type
         rdf:resource="http://purl.org/dc/dcmitype/StillImage" /></cc:Work></rdf:RDF></metadata><sodipodi:namedview
   pagecolor="#ffffff"
   bordercolor="#666666"
   borderopacity="1"
   objecttolerance="10"
   gridtolerance="10"
   guidetolerance="10"
   inkscape:pageopacity="0"
   inkscape:pageshadow="2"
   inkscape:window-width="1920"
   inkscape:window-height="1017"
   id="namedview15"
   showgrid="false"
   inkscape:zoom="6.9532167"
   inkscape:cx="30.374151"
   inkscape:cy="25.19143"
   inkscape:window-x="-8"
   inkscape:window-y="-8"
   inkscape:window-maximized="1"
   inkscape:current-layer="svg13" />
    
    <g
   id="arrow-run"
   inkscape:label="#arrow-run"><rect
     style="fill:none;"
     height="48"
     width="48"
     y="0"
     x="0"
     id="holder" /><g
     transform="matrix(0.328125,0,0,0.328125,-44.3221,-203.711)"
     id="logo">
        <path
   id="arrow-cutout-run"
   style="fill:url(#_Linear1);fill-rule:nonzero;"
   d="M207.478,633.027C203.874,633.065 200.252,633.42 196.635,634.089C195.521,634.299 194.433,634.576 193.322,634.839C190.004,635.639 186.699,636.631 183.448,637.995C180.198,639.358 177.153,641.032 174.26,642.838C173.292,643.447 172.313,644.032 171.385,644.682C156.566,655.082 147.13,671.163 144.792,688.584C157.018,685.999 169.254,683.42 181.479,680.835C183.848,680.335 186.238,679.807 188.604,679.304C192.339,678.517 196.057,677.747 199.791,676.96C204.405,675.985 209.022,674.993 213.634,674.023C215.423,673.644 217.191,673.277 218.978,672.898C226.584,671.289 234.192,669.662 241.79,668.055C239.086,675.334 236.373,682.644 233.665,689.928C233.025,691.645 232.399,693.336 231.759,695.052C230.121,699.467 228.493,703.888 226.853,708.301C225.518,711.874 224.187,715.437 222.853,719.019C222.012,721.284 221.167,723.566 220.322,725.831C215.965,737.553 211.588,749.293 207.228,761.015C215.817,761.151 224.583,759.581 233.009,756.047C241.441,752.507 248.682,747.364 254.602,741.142C255.38,740.317 256.115,739.442 256.852,738.58C261.384,733.271 265.024,727.335 267.602,720.925C268.026,719.873 268.356,718.781 268.727,717.706C273.628,703.385 273.578,687.303 267.258,672.242C266.436,670.28 265.502,668.392 264.508,666.555C263.972,665.545 263.354,664.584 262.758,663.618C259.078,657.583 254.52,652.333 249.29,647.963C248.414,647.234 247.512,646.552 246.602,645.869C235.389,637.478 221.618,632.876 207.478,633.027ZM229.071,678.741L167.042,691.521L197.885,705.645L206.791,738.111L229.071,678.741ZM144.417,691.959C143.875,698.75 144.446,705.693 146.167,712.551C146.443,713.652 146.702,714.773 147.042,715.863C147.656,717.858 148.342,719.838 149.167,721.8C155.488,736.859 166.944,748.169 180.604,754.703C181.628,755.195 182.617,755.707 183.666,756.14C190.047,758.792 196.866,760.346 203.822,760.828C201.902,753.952 199.99,747.058 198.072,740.173C195.982,732.692 193.883,725.223 191.791,717.738C191.299,715.982 190.811,714.222 190.322,712.457C188.652,711.716 186.988,710.948 185.323,710.207C178.223,707.04 171.107,703.877 164.011,700.708C157.482,697.793 150.948,694.875 144.417,691.959Z" />
    </g></g>
    <defs
   id="defs11">
        <linearGradient
   id="_Linear1"
   x1="0"
   y1="0"
   x2="1"
   y2="0"
   gradientUnits="userSpaceOnUse"
   gradientTransform="matrix(8.9574e-15,-127.999,146.286,7.8377e-15,217.15,761.023)"><stop
     offset="0"
     style="stop-color:rgb(153,153,153);stop-opacity:1"
     id="stop6" /><stop
     offset="1"
     style="stop-color:rgb(229,229,229);stop-opacity:1"
     id="stop8" /></linearGradient>
    </defs>
</svg>